<?xml version="1.0" encoding="UTF-8"?>
<svg width="120" height="40" viewBox="0 0 120 40" fill="none" xmlns="http://www.w3.org/2000/svg">
  <!-- Background gradient -->
  <defs>
    <linearGradient id="logoGradient" x1="0%" y1="0%" x2="100%" y2="100%">
      <stop offset="0%" style="stop-color:#00FFD5"/>
      <stop offset="100%" style="stop-color:#0066FF"/>
    </linearGradient>
  </defs>
  
  <!-- VERSA text -->
  <path d="M15.6 28L23.2 8H28.4L36 28H31.2L25.6 11.6H26L20.4 28H15.6ZM19.2 22.4L20 18.8H31.6L32.4 22.4H19.2Z" fill="url(#logoGradient)"/>
  <path d="M44.8 28L38.4 8H43.2L48 24H47.6L52.4 8H56.8L51.2 28H44.8Z" fill="url(#logoGradient)"/>
  <path d="M66.4 28.4C64.4 28.4 62.6667 27.9333 61.2 27C59.7333 26.0667 58.6 24.8 57.8 23.2C57 21.5333 56.6 19.6667 56.6 17.6C56.6 15.5333 57 13.7333 57.8 12.1C58.6 10.4667 59.7333 9.2 61.2 8.3C62.6667 7.36667 64.4 6.9 66.4 6.9C68.4 6.9 70.1333 7.36667 71.6 8.3C73.0667 9.2 74.2 10.4667 75 12.1C75.8 13.7333 76.2 15.5333 76.2 17.6C76.2 19.6667 75.8 21.5333 75 23.2C74.2 24.8 73.0667 26.0667 71.6 27C70.1333 27.9333 68.4 28.4 66.4 28.4ZM66.4 24.4C67.6 24.4 68.6667 24.1333 69.6 23.6C70.5333 23.0667 71.2667 22.2667 71.8 21.2C72.3333 20.1333 72.6 19 72.6 17.8C72.6 16.6 72.3333 15.4667 71.8 14.4C71.2667 13.3333 70.5333 12.5333 69.6 12C68.6667 11.4667 67.6 11.2 66.4 11.2C65.2 11.2 64.1333 11.4667 63.2 12C62.2667 12.5333 61.5333 13.3333 61 14.4C60.4667 15.4667 60.2 16.6 60.2 17.8C60.2 19 60.4667 20.1333 61 21.2C61.5333 22.2667 62.2667 23.0667 63.2 23.6C64.1333 24.1333 65.2 24.4 66.4 24.4Z" fill="url(#logoGradient)"/>
  <path d="M86.4 28.4C84.4 28.4 82.6667 27.9333 81.2 27C79.7333 26.0667 78.6 24.8 77.8 23.2C77 21.5333 76.6 19.6667 76.6 17.6C76.6 15.5333 77 13.7333 77.8 12.1C78.6 10.4667 79.7333 9.2 81.2 8.3C82.6667 7.36667 84.4 6.9 86.4 6.9C88.4 6.9 90.1333 7.36667 91.6 8.3C93.0667 9.2 94.2 10.4667 95 12.1C95.8 13.7333 96.2 15.5333 96.2 17.6C96.2 19.6667 95.8 21.5333 95 23.2C94.2 24.8 93.0667 26.0667 91.6 27C90.1333 27.9333 88.4 28.4 86.4 28.4ZM86.4 24.4C87.6 24.4 88.6667 24.1333 89.6 23.6C90.5333 23.0667 91.2667 22.2667 91.8 21.2C92.3333 20.1333 92.6 19 92.6 17.8C92.6 16.6 92.3333 15.4667 91.8 14.4C91.2667 13.3333 90.5333 12.5333 89.6 12C88.6667 11.4667 87.6 11.2 86.4 11.2C85.2 11.2 84.1333 11.4667 83.2 12C82.2667 12.5333 81.5333 13.3333 81 14.4C80.4667 15.4667 80.2 16.6 80.2 17.8C80.2 19 80.4667 20.1333 81 21.2C81.5333 22.2667 82.2667 23.0667 83.2 23.6C84.1333 24.1333 85.2 24.4 86.4 24.4Z" fill="url(#logoGradient)"/>
  <path d="M106.4 28L98.8 8H103.6L109.2 24.4H108.8L114.4 8H118.8L111.2 28H106.4Z" fill="url(#logoGradient)"/>
  
  <!-- Decorative elements -->
  <path d="M3 20L7 16M7 16L11 20M7 16V24" stroke="url(#logoGradient)" stroke-width="2" stroke-linecap="round" stroke-linejoin="round"/>
</svg> 